<mxfile host="app.diagrams.net" agent="Mozilla/5.0 (Windows NT 10.0; Win64; x64) AppleWebKit/537.36 (KHTML, like Gecko) Chrome/128.0.0.0 Safari/537.36" version="24.7.8">
  <diagram name="ページ1" id="0ELPXmOH-ATP9nb3TsPl">
    <mxGraphModel dx="758" dy="509" grid="1" gridSize="10" guides="1" tooltips="1" connect="1" arrows="1" fold="1" page="0" pageScale="1" pageWidth="827" pageHeight="1169" math="0" shadow="0">
      <root>
        <mxCell id="0" />
        <mxCell id="1" parent="0" />
        <mxCell id="GgOkJmAwKmERNcYT0DHV-5" style="edgeStyle=none;curved=1;rounded=0;orthogonalLoop=1;jettySize=auto;html=1;entryX=0;entryY=0.5;entryDx=0;entryDy=0;fontSize=12;startSize=8;endSize=8;exitX=1;exitY=0.5;exitDx=0;exitDy=0;" edge="1" parent="1" source="GgOkJmAwKmERNcYT0DHV-1" target="GgOkJmAwKmERNcYT0DHV-3">
          <mxGeometry relative="1" as="geometry" />
        </mxCell>
        <mxCell id="GgOkJmAwKmERNcYT0DHV-6" style="edgeStyle=none;curved=0;rounded=0;orthogonalLoop=1;jettySize=auto;html=1;entryX=0;entryY=0.5;entryDx=0;entryDy=0;fontSize=12;startSize=8;endSize=8;" edge="1" parent="1" source="GgOkJmAwKmERNcYT0DHV-1" target="GgOkJmAwKmERNcYT0DHV-4">
          <mxGeometry relative="1" as="geometry">
            <Array as="points">
              <mxPoint x="180" y="140" />
              <mxPoint x="180" y="220" />
            </Array>
          </mxGeometry>
        </mxCell>
        <mxCell id="GgOkJmAwKmERNcYT0DHV-1" value="s_waterLevelSensor" style="text;html=1;align=center;verticalAlign=middle;whiteSpace=wrap;rounded=0;fontSize=16;" vertex="1" parent="1">
          <mxGeometry x="-30" y="130" width="150" height="20" as="geometry" />
        </mxCell>
        <mxCell id="GgOkJmAwKmERNcYT0DHV-9" style="edgeStyle=none;curved=1;rounded=0;orthogonalLoop=1;jettySize=auto;html=1;entryX=0.5;entryY=0;entryDx=0;entryDy=0;fontSize=12;startSize=8;endSize=8;" edge="1" parent="1" source="GgOkJmAwKmERNcYT0DHV-3" target="GgOkJmAwKmERNcYT0DHV-7">
          <mxGeometry relative="1" as="geometry" />
        </mxCell>
        <mxCell id="GgOkJmAwKmERNcYT0DHV-3" value="filter&lt;div&gt;=== 0&lt;/div&gt;" style="rhombus;whiteSpace=wrap;html=1;" vertex="1" parent="1">
          <mxGeometry x="240" y="120" width="80" height="40" as="geometry" />
        </mxCell>
        <mxCell id="GgOkJmAwKmERNcYT0DHV-10" style="edgeStyle=none;curved=1;rounded=0;orthogonalLoop=1;jettySize=auto;html=1;entryX=0.5;entryY=0;entryDx=0;entryDy=0;fontSize=12;startSize=8;endSize=8;" edge="1" parent="1" source="GgOkJmAwKmERNcYT0DHV-4" target="GgOkJmAwKmERNcYT0DHV-8">
          <mxGeometry relative="1" as="geometry" />
        </mxCell>
        <mxCell id="GgOkJmAwKmERNcYT0DHV-4" value="filter&lt;div&gt;&amp;gt; 0&lt;/div&gt;" style="rhombus;whiteSpace=wrap;html=1;" vertex="1" parent="1">
          <mxGeometry x="240" y="200" width="80" height="40" as="geometry" />
        </mxCell>
        <mxCell id="GgOkJmAwKmERNcYT0DHV-7" value="map to true" style="shape=offPageConnector;whiteSpace=wrap;html=1;direction=north;" vertex="1" parent="1">
          <mxGeometry x="360" y="120" width="80" height="40" as="geometry" />
        </mxCell>
        <mxCell id="GgOkJmAwKmERNcYT0DHV-8" value="map to false" style="shape=offPageConnector;whiteSpace=wrap;html=1;direction=north;" vertex="1" parent="1">
          <mxGeometry x="360" y="200" width="80" height="40" as="geometry" />
        </mxCell>
        <mxCell id="GgOkJmAwKmERNcYT0DHV-15" style="edgeStyle=none;curved=1;rounded=0;orthogonalLoop=1;jettySize=auto;html=1;exitX=0.5;exitY=0;exitDx=0;exitDy=0;fontSize=12;startSize=8;endSize=8;" edge="1" parent="1" source="GgOkJmAwKmERNcYT0DHV-11">
          <mxGeometry relative="1" as="geometry">
            <mxPoint x="760" y="180" as="targetPoint" />
          </mxGeometry>
        </mxCell>
        <mxCell id="GgOkJmAwKmERNcYT0DHV-11" value="orElse" style="shape=trapezoid;perimeter=trapezoidPerimeter;whiteSpace=wrap;html=1;fixedSize=1;direction=south;" vertex="1" parent="1">
          <mxGeometry x="480" y="120" width="60" height="120" as="geometry" />
        </mxCell>
        <mxCell id="GgOkJmAwKmERNcYT0DHV-12" style="edgeStyle=none;curved=1;rounded=0;orthogonalLoop=1;jettySize=auto;html=1;exitX=0.5;exitY=1;exitDx=0;exitDy=0;entryX=0.166;entryY=1;entryDx=0;entryDy=0;entryPerimeter=0;fontSize=12;startSize=8;endSize=8;" edge="1" parent="1" source="GgOkJmAwKmERNcYT0DHV-7" target="GgOkJmAwKmERNcYT0DHV-11">
          <mxGeometry relative="1" as="geometry" />
        </mxCell>
        <mxCell id="GgOkJmAwKmERNcYT0DHV-13" style="edgeStyle=none;curved=1;rounded=0;orthogonalLoop=1;jettySize=auto;html=1;entryX=0.833;entryY=1;entryDx=0;entryDy=0;entryPerimeter=0;fontSize=12;startSize=8;endSize=8;" edge="1" parent="1" source="GgOkJmAwKmERNcYT0DHV-8" target="GgOkJmAwKmERNcYT0DHV-11">
          <mxGeometry relative="1" as="geometry" />
        </mxCell>
        <mxCell id="GgOkJmAwKmERNcYT0DHV-14" value="s_waterLevelLowUpdate" style="text;html=1;align=center;verticalAlign=middle;whiteSpace=wrap;rounded=0;fontSize=16;" vertex="1" parent="1">
          <mxGeometry x="560" y="160" width="180" height="20" as="geometry" />
        </mxCell>
      </root>
    </mxGraphModel>
  </diagram>
</mxfile>
